<svg width="100" height="100" viewBox="0 0 100 100" fill="none" xmlns="http://www.w3.org/2000/svg">
<path d="M99.1221 40.6627C98.8588 39.2809 97.6508 38.2812 96.2441 38.2812H50C48.382 38.2812 47.0703 39.593 47.0703 41.2109V58.7891C47.0703 60.407 48.382 61.7188 50 61.7188H73.6191C71.8383 65.3016 69.283 68.4023 66.2158 70.8311C65.9576 70.9656 65.7152 71.141 65.4984 71.3576C65.476 71.3801 65.4568 71.4045 65.4353 71.4275C61.0164 74.6729 55.632 76.5625 50 76.5625C35.3016 76.5625 23.4375 64.5885 23.4375 50C23.4375 35.4057 35.308 23.4375 50 23.4375C55.5787 23.4375 61.0453 25.3307 65.8094 28.9125C66.9752 29.7893 68.6096 29.6744 69.6414 28.6424L82.1432 16.1406C83.3582 14.9256 83.2707 12.9279 81.9537 11.8238C72.8584 4.19922 61.5105 0 50 0C36.7168 0 24.1809 5.2209 14.701 14.7008C5.2207 24.1809 0 36.717 0 50C0 63.283 5.2207 75.8191 14.701 85.2992C24.1809 94.7791 36.7168 100 50 100C63.2832 100 75.8191 94.7791 85.299 85.2992C94.7793 75.8191 100 63.283 100 50C100 46.8627 99.7045 43.7213 99.1221 40.6627ZM50 5.85938C59.098 5.85938 68.0955 8.85078 75.6586 14.3387L67.2316 22.7658C61.9527 19.3641 56.0441 17.5781 50 17.5781C41.4049 17.5781 33.2811 20.9686 27.1248 27.1248C24.8105 29.4393 22.8873 32.0318 21.3879 34.8229L12.8107 26.2457C20.6633 13.9947 34.3994 5.85938 50 5.85938ZM9.88105 31.6023L18.9555 40.6768C18.0484 43.668 17.5781 46.8012 17.5781 50C17.5781 53.1988 18.0484 56.332 18.9555 59.3232L9.88105 68.3977C7.30117 62.7939 5.85938 56.5625 5.85938 50C5.85938 43.4375 7.30117 37.2061 9.88105 31.6023ZM12.8107 73.7543L21.3879 65.1771C22.8873 67.9682 24.8105 70.5607 27.1248 72.8752C33.2811 79.0314 41.4049 82.4219 50 82.4219C56.1828 82.4219 62.1143 80.6564 67.2951 77.2975L75.7945 85.7971C68.5338 91.0436 59.6223 94.1406 50 94.1406C34.3994 94.1406 20.6633 86.0053 12.8107 73.7543ZM80.3266 82.0428L71.9377 73.6537C75.998 69.8242 79.0758 64.9635 80.7443 59.6695C81.0248 58.7795 80.8644 57.809 80.3127 57.0564C79.7607 56.3039 78.8834 55.8592 77.95 55.8592H52.9297V44.1404H93.7516C94.01 46.0766 94.1406 48.0387 94.1406 49.9998C94.1406 62.6053 88.8285 73.9922 80.3266 82.0428Z" fill="white"/>
</svg>
